General

Complete name                    : ATLANTIS-THE LOST EMPIRE{PSP.IPOD.ZUNE}DVDRip.aaaevilacharya.m4v
Format                           : MPEG-4
Format profile                   : Base Media / Version 2
Codec ID                         : mp42
File size                        : 234 MiB
Duration                         : 1h 35mn
Overall bit rate                 : 342 Kbps
Encoded date                     : UTC 2010-12-21 22:06:18
Tagged date                      : UTC 2010-12-22 00:24:41


Video
ID                               : 1
Format                           : AVC
Format/Info                      : Advanced Video Codec
Format profile                   : Baseline@L3.0
Format settings, CABAC           : No
Format settings, ReFrames        : 1 frame
Codec ID                         : avc1
Codec ID/Info                    : Advanced Video Coding
Duration                         : 1h 35mn
Bit rate mode                    : Variable
Bit rate                         : 250 Kbps
Width                            : 480 pixels
Height                           : 208 pixels
Display aspect ratio             : 2.35:1
Frame rate mode                  : Variable
Frame rate                       : 23.976 fps
Minimum frame rate               : 23.974 fps
Maximum frame rate               : 23.981 fps
Color space                      : YUV
Chroma subsampling               : 4:2:0
Bit depth                        : 8 bits
Scan type                        : Progressive
Bits/(Pixel*Frame)               : 0.104
Stream size                      : 175 MiB (75%)
Writing library                  : x264 core 79

Audio
ID                               : 2
Format                           : AAC
Format/Info                      : Advanced Audio Codec
Format version                   : Version 4
Format profile                   : LC
Format settings, SBR             : Yes
Format settings, PS              : No
Codec ID                         : 40
Duration                         : 1h 35mn
Bit rate mode                    : Variable
Bit rate                         : 82.7 Kbps
Maximum bit rate                 : 133 Kbps
Channel(s)                       : 2 channels
Channel positions                : Front: L R
Sampling rate                    : 48.0 KHz
Stream size                      : 56.7 MiB (24%)
Encoded date                     : UTC 2010-12-21 22:06:18
Tagged date                      : UTC 2010-12-22 00:24:41

Text
ID                               : 3
Format                           : Apple text
Codec ID                         : text
Duration                         : 1h 35mn
Bit rate                         : 0
Stream size                      : 14.0 Bytes (0%)
Encoded date                     : UTC 2010-12-21 22:06:18
Tagged date                      : UTC 2010-12-22 00:24:41


SCREENSHOTS
 
http://img843.imageshack.us/img843/4049/s1j6g0.jpg 
http://img256.imageshack.us/img256/9237/atlantisthelostempireps.jpg 
http://img213.imageshack.us/img213/9237/atlantisthelostempireps.jpg 
http://img692.imageshack.us/img692/9237/atlantisthelostempireps.jpg 
http://img824.imageshack.us/img824/9237/atlantisthelostempireps.jpg 
http://img152.imageshack.us/img152/9237/atlantisthelostempireps.jpg 
http://img593.imageshack.us/img593/9237/atlantisthelostempireps.jpg
